# xmcd CD database file
#
# Track frame offsets:
#	182
#	19907
#	38332
#	62590
#	83440
#	103137
#	129500
#	147492
#	167542
#	197480
#	211547
#	235685
#	269020
#	285032
#	305257
#	328327
#
# Disc length: 4615 seconds
#
# Revision: 2
# Processed by: cddbd v1.5.2PL0 Copyright (c) Steve Scherf et al.
# Submitted via: CDex 1.70beta2
#
DISCID=cf120510
DTITLE=Monique Haas - ドビュッシーピアノ名曲集
DYEAR=1900
DGENRE=Classical
TTITLE0=ベルがマスク組曲 前奏曲
TTITLE1=ベルがマスク組曲 メヌエット
TTITLE2=ベルガマスク組曲 月の光
TTITLE3=ベルがマスク組曲 パスピエ
TTITLE4=ピアノのために 前奏曲
TTITLE5=ピアノのために サラバンド
TTITLE6=ピアノのために トッカータ
TTITLE7=夢
TTITLE8=夜想曲
TTITLE9=ロマンティックなワルツ
TTITLE10=映像第1集 水の反映
TTITLE11=映像第1集 ラモーを讃えて
TTITLE12=映像第1集 動き
TTITLE13=映像第2集 葉ずえを渡る鐘の音
TTITLE14=映像第2集 荒れた寺にかかる月
TTITLE15=映像第2集 金色の魚
EXTD=
EXTT0=
EXTT1=
EXTT2=
EXTT3=
EXTT4=
EXTT5=
EXTT6=
EXTT7=
EXTT8=
EXTT9=
EXTT10=
EXTT11=
EXTT12=
EXTT13=
EXTT14=
EXTT15=
PLAYORDER=
